<svg width="61" height="61" viewBox="0 0 61 61" fill="none" xmlns="http://www.w3.org/2000/svg">
<circle cx="30.5" cy="30.5" r="30.5" fill="#151D1B"/>
<path d="M13.4364 42L16.8364 18.36H26.2364L29.5564 42H22.3964L22.0764 38.56H20.5964L20.3564 42H13.4364ZM20.6364 35.48H22.0764L21.3564 23.36L20.6364 35.48Z" fill="#727272"/>
<path d="M30.4553 42.0434L27.0645 18.6479L36.5652 17.2709C38.307 17.0185 39.6161 17.2194 40.4923 17.8739C41.3911 18.498 41.9247 19.3907 42.093 20.552L42.6094 24.1147C42.7738 25.2495 42.6478 26.3321 42.2313 27.3625C41.8374 28.3627 40.9525 29.0433 39.5767 29.4044L39.5882 29.4836C40.5387 29.5344 41.216 29.7461 41.6203 30.1187C42.0472 30.461 42.4482 31.09 42.8234 32.0056L46.0523 39.7829L39.0456 40.7984L36.5866 33.3137C36.4045 32.8012 36.2528 32.4055 36.1316 32.1267C36.0065 31.8215 35.8912 31.6765 35.7856 31.6918L35.6669 31.7091L37.0267 41.091L30.4553 42.0434ZM35.0358 27.3546L35.6691 27.2628C36.0122 27.213 36.2551 27.0296 36.3978 26.7126C36.5404 26.3955 36.5601 25.8807 36.4568 25.1681L36.0839 22.595C35.9806 21.8824 35.8326 21.4189 35.6398 21.2043C35.4696 20.9595 35.213 20.862 34.8699 20.9117L34.1178 21.0207L35.0358 27.3546Z" fill="#65BA93"/>
</svg>
