<svg width="25" height="25" viewBox="0 0 25 25" fill="none" xmlns="http://www.w3.org/2000/svg">
<path d="M12.5 0.790527C10.9241 0.790527 9.36371 1.10092 7.9078 1.70397C6.45189 2.30703 5.12902 3.19094 4.01472 4.30525C1.76428 6.55568 0.5 9.60793 0.5 12.7905C0.5 18.0945 3.944 22.5945 8.708 24.1905C9.308 24.2865 9.5 23.9145 9.5 23.5905V21.5625C6.176 22.2825 5.468 19.9545 5.468 19.9545C4.916 18.5625 4.136 18.1905 4.136 18.1905C3.044 17.4465 4.22 17.4705 4.22 17.4705C5.42 17.5545 6.056 18.7065 6.056 18.7065C7.1 20.5305 8.864 19.9905 9.548 19.7025C9.656 18.9225 9.968 18.3945 10.304 18.0945C7.64 17.7945 4.844 16.7625 4.844 12.1905C4.844 10.8585 5.3 9.79053 6.08 8.93853C5.96 8.63853 5.54 7.39053 6.2 5.77053C6.2 5.77053 7.208 5.44653 9.5 6.99453C10.448 6.73053 11.48 6.59853 12.5 6.59853C13.52 6.59853 14.552 6.73053 15.5 6.99453C17.792 5.44653 18.8 5.77053 18.8 5.77053C19.46 7.39053 19.04 8.63853 18.92 8.93853C19.7 9.79053 20.156 10.8585 20.156 12.1905C20.156 16.7745 17.348 17.7825 14.672 18.0825C15.104 18.4545 15.5 19.1865 15.5 20.3025V23.5905C15.5 23.9145 15.692 24.2985 16.304 24.1905C21.068 22.5825 24.5 18.0945 24.5 12.7905C24.5 11.2147 24.1896 9.65423 23.5866 8.19833C22.9835 6.74242 22.0996 5.41955 20.9853 4.30525C19.871 3.19094 18.5481 2.30703 17.0922 1.70397C15.6363 1.10092 14.0759 0.790527 12.5 0.790527Z" fill="#D9D9D9"/>
</svg>
