<svg width="25" height="25" viewBox="0 0 25 25" fill="none" xmlns="http://www.w3.org/2000/svg">
<path d="M19.58 18.968C19.268 18.008 18.368 17.3 17.3 17.3H16.1V13.7C16.1 13.3817 15.9736 13.0765 15.7485 12.8515C15.5235 12.6264 15.2183 12.5 14.9 12.5H7.7V10.1H10.1C10.4183 10.1 10.7235 9.97357 10.9485 9.74853C11.1736 9.52348 11.3 9.21826 11.3 8.9V6.5H13.7C14.3365 6.5 14.947 6.24714 15.3971 5.79706C15.8471 5.34697 16.1 4.73652 16.1 4.1V3.608C17.5358 4.18684 18.8099 5.10497 19.8133 6.2838C20.8167 7.46263 21.5196 8.86706 21.8616 10.3769C22.2037 11.8866 22.1748 13.4569 21.7774 14.953C21.3801 16.4492 20.6261 17.8269 19.58 18.968ZM11.3 22.016C6.56 21.428 2.9 17.396 2.9 12.5C2.9 11.756 2.996 11.036 3.152 10.352L8.9 16.1V17.3C8.9 17.9365 9.15286 18.547 9.60294 18.9971C10.053 19.4471 10.6635 19.7 11.3 19.7M12.5 0.5C10.9241 0.5 9.36371 0.810389 7.9078 1.41345C6.45189 2.0165 5.12902 2.90042 4.01472 4.01472C1.76428 6.26516 0.5 9.3174 0.5 12.5C0.5 15.6826 1.76428 18.7348 4.01472 20.9853C5.12902 22.0996 6.45189 22.9835 7.9078 23.5866C9.36371 24.1896 10.9241 24.5 12.5 24.5C15.6826 24.5 18.7348 23.2357 20.9853 20.9853C23.2357 18.7348 24.5 15.6826 24.5 12.5C24.5 10.9241 24.1896 9.36371 23.5866 7.9078C22.9835 6.45189 22.0996 5.12902 20.9853 4.01472C19.871 2.90042 18.5481 2.0165 17.0922 1.41345C15.6363 0.810389 14.0759 0.5 12.5 0.5Z" fill="#D9D9D9"/>
</svg>
