<svg width="25" height="25" viewBox="0 0 25 25" fill="none" xmlns="http://www.w3.org/2000/svg">
<path d="M21.0025 3.94907C19.8968 2.8322 18.5798 1.94666 17.1283 1.34411C15.6768 0.741556 14.1198 0.43405 12.5482 0.439525C5.96332 0.439525 0.596483 5.80636 0.596483 12.3913C0.596483 14.5018 1.15126 16.5521 2.18844 18.3611L0.5 24.5601L6.83166 22.8958C8.5804 23.8486 10.5462 24.3551 12.5482 24.3551C19.1332 24.3551 24.5 18.9883 24.5 12.4033C24.5 9.20736 23.2578 6.20435 21.0025 3.94907ZM12.5482 22.329C10.7633 22.329 9.01457 21.8466 7.48291 20.942L7.1211 20.7249L3.35829 21.7139L4.3593 18.0476L4.11809 17.6737C3.12643 16.0901 2.59987 14.2597 2.59849 12.3913C2.59849 6.91591 7.0608 2.4536 12.5362 2.4536C15.1894 2.4536 17.6859 3.49078 19.5553 5.37219C20.4809 6.29355 21.2144 7.38947 21.7133 8.59642C22.2123 9.80337 22.4667 11.0973 22.4618 12.4033C22.4859 17.8787 18.0236 22.329 12.5482 22.329ZM17.9995 14.8998C17.698 14.7551 16.2266 14.0315 15.9613 13.9229C15.6839 13.8265 15.491 13.7782 15.2859 14.0677C15.0809 14.3692 14.5141 15.0445 14.3452 15.2375C14.1764 15.4425 13.9955 15.4667 13.694 15.3099C13.3925 15.1652 12.4276 14.8395 11.294 13.8265C10.4015 13.0305 9.81055 12.0536 9.62965 11.7521C9.4608 11.4506 9.60553 11.2938 9.76231 11.137C9.89497 11.0043 10.0638 10.7873 10.2085 10.6184C10.3533 10.4496 10.4136 10.3169 10.51 10.1239C10.6065 9.91892 10.5583 9.75008 10.4859 9.60535C10.4136 9.46063 9.81055 7.98927 9.56935 7.38626C9.32814 6.80736 9.07487 6.87972 8.89397 6.86766H8.31507C8.11005 6.86766 7.79648 6.94003 7.51909 7.24153C7.25377 7.54304 6.48191 8.26666 6.48191 9.73802C6.48191 11.2094 7.55528 12.6325 7.7 12.8255C7.84472 13.0305 9.81055 16.0456 12.8015 17.336C13.5131 17.6496 14.0678 17.8305 14.502 17.9631C15.2136 18.1923 15.8648 18.1561 16.3834 18.0837C16.9623 17.9993 18.1563 17.3601 18.3975 16.6606C18.6508 15.9611 18.6508 15.3702 18.5663 15.2375C18.4819 15.1048 18.301 15.0445 17.9995 14.8998Z" fill="#D9D9D9"/>
</svg>
